<svg width="177" height="58" viewBox="0 0 177 58" fill="none" xmlns="http://www.w3.org/2000/svg">
<path d="M35.3048 24.203C36.4204 24.1707 37.5298 24.3863 38.5582 24.8352C39.6072 25.2797 40.5516 25.9525 41.3274 26.808L43.2963 24.8352C42.2653 23.707 41.0132 22.82 39.6241 22.2335C38.2349 21.647 36.7407 21.3746 35.2416 21.4345C28.6925 21.4236 23.9545 26.1431 23.9545 32.6065C23.9545 39.0699 28.6925 43.8003 35.1574 43.8003C36.6641 43.8608 38.1658 43.5855 39.5609 42.9932C40.956 42.4009 42.2119 41.5052 43.2437 40.3669L41.3274 38.3941C40.5569 39.2409 39.6218 39.9089 38.5836 40.3542C37.5455 40.7995 36.428 41.0118 35.3048 40.9773C34.2134 41.018 33.1253 40.8306 32.1055 40.4263C31.0856 40.0221 30.1549 39.4092 29.369 38.6243C28.583 37.8395 27.9579 36.8987 27.5309 35.8582C27.1039 34.8177 26.8838 33.6988 26.8838 32.5683C26.8838 31.4379 27.1039 30.319 27.5309 29.2785C27.9579 28.238 28.583 27.2972 29.369 26.5124C30.1549 25.7275 31.0856 25.1146 32.1055 24.7104C33.1253 24.3061 34.2134 24.1187 35.3048 24.1594V24.203Z" fill="#0C0C0C"/>
<path d="M55.1204 27.0478C54.877 23.3012 53.9103 19.6431 52.2776 16.2899L51.7511 15.2L50.5929 15.4725C50.2487 15.5618 49.8949 15.6058 49.54 15.6033C48.76 15.5999 47.9942 15.386 47.3184 14.9827C46.6426 14.5794 46.0801 14.0006 45.6864 13.3035L44.9704 12.0609L43.7069 12.704C43.0198 13.0582 42.2634 13.2446 41.4958 13.249C40.8349 13.2519 40.1799 13.1199 39.5682 12.8608C38.9566 12.6016 38.4002 12.2202 37.9309 11.7385C37.4616 11.2567 37.0885 10.684 36.8331 10.0529C36.5776 9.42193 36.4447 8.74501 36.4419 8.06083V6.74199L35.3258 6.41501C34.4461 6.15415 33.6662 5.6172 33.0937 4.87818C32.5174 4.13829 32.1754 3.23245 32.1145 2.2841L32.0724 0.976157L30.7983 0.834464C25.9137 0.272941 20.9731 1.08303 16.4951 3.17968C12.0172 5.27634 8.1671 8.58224 5.34897 12.7504C2.53085 16.9185 0.848643 21.7951 0.478941 26.8683C0.109239 31.9415 1.06568 37.0241 3.24785 41.5827C5.43003 46.1413 8.75746 50.0077 12.8809 52.7761C17.0043 55.5444 21.7716 57.1126 26.6823 57.316C31.5931 57.5195 36.4662 56.3506 40.7901 53.9322C45.114 51.5137 48.7292 47.9349 51.2563 43.5714C51.8567 43.6893 52.4666 43.7477 53.0778 43.7458C54.1713 43.7956 55.263 43.6117 56.2849 43.2056C57.3068 42.7995 58.2369 42.1799 59.0173 41.3853C59.7977 40.5908 60.4116 39.6383 60.8208 38.5874C61.23 37.5365 61.4257 36.4095 61.3957 35.2769C61.4621 33.3577 60.8675 31.4766 59.7181 29.9692C58.5686 28.4619 56.9391 27.4265 55.1204 27.0478ZM27.7449 54.1875C24.5034 54.2573 21.2811 53.6566 18.2668 52.4207C15.2524 51.1848 12.5066 49.3386 10.1904 46.9902C7.87409 44.6417 6.03391 41.8384 4.77763 38.7443C3.52135 35.6503 2.87425 32.3278 2.87425 28.9715C2.87425 25.6153 3.52135 22.2928 4.77763 19.1987C6.03391 16.1047 7.87409 13.3013 10.1904 10.9529C12.5066 8.60443 15.2524 6.75818 18.2668 5.5223C21.2811 4.28642 24.5034 3.68576 27.7449 3.75553C28.2714 3.75553 28.7978 3.75553 29.3453 3.82093C29.6047 4.94389 30.1009 5.99354 30.7983 6.89458C31.5155 7.79685 32.4233 8.51655 33.4517 8.99819C33.6955 11.0231 34.6454 12.886 36.1229 14.2368C37.6004 15.5877 39.5036 16.3333 41.4748 16.3335C42.2634 16.334 43.0476 16.2127 43.8017 15.9739C44.5061 16.8288 45.3809 17.516 46.3659 17.9882C47.3509 18.4604 48.4229 18.7065 49.5084 18.7096C49.6697 18.7205 49.8315 18.7205 49.9928 18.7096C51.1177 21.2938 51.8051 24.059 52.0249 26.8843C49.989 27.027 48.0852 27.9789 46.7117 29.541C45.3381 31.1031 44.601 33.1544 44.6546 35.266C44.6193 36.6832 44.9392 38.0856 45.5832 39.3368C46.2272 40.5879 47.1732 41.645 48.3292 42.4051C46.1331 46.006 43.0938 48.9741 39.4933 51.0339C35.8929 53.0937 31.8481 54.1785 27.7344 54.1875H27.7449ZM53.0883 41.1081C52.349 41.1362 51.6122 41.0026 50.9261 40.7161C50.24 40.4296 49.6199 39.9966 49.1063 39.4454C48.5927 38.8942 48.197 38.2371 47.9452 37.5169C47.6934 36.7968 47.591 36.0298 47.6448 35.266C47.6448 33.783 48.2139 32.3608 49.2268 31.3122C50.2398 30.2636 51.6137 29.6745 53.0462 29.6745C54.4787 29.6745 55.8526 30.2636 56.8656 31.3122C57.8785 32.3608 58.4476 33.783 58.4476 35.266C58.5006 36.0232 58.4002 36.7836 58.1527 37.4983C57.9053 38.213 57.5163 38.8663 57.0108 39.4164C56.5052 39.9664 55.8942 40.401 55.2169 40.6923C54.5396 40.9836 53.811 41.1253 53.0778 41.1081H53.0883Z" fill="#0C0C0C"/>
<path d="M71.5773 26.808C70.4835 26.7538 69.3905 26.9333 68.3666 27.3353C67.3426 27.7372 66.4095 28.353 65.6253 29.1443C64.8411 29.9357 64.2227 30.8856 63.8084 31.935C63.3941 32.9844 63.1929 34.1108 63.2173 35.2442C63.1916 36.3794 63.3917 37.5079 63.8051 38.5597C64.2185 39.6115 64.8364 40.5641 65.6204 41.3583C66.4044 42.1525 67.3377 42.7714 68.3625 43.1764C69.3872 43.5815 70.4815 43.7642 71.5773 43.7131C72.6713 43.7628 73.7635 43.579 74.7859 43.173C75.8083 42.767 76.7391 42.1475 77.5203 41.3531C78.3015 40.5588 78.9164 39.6065 79.3268 38.5555C79.7372 37.5045 79.9343 36.3774 79.9058 35.2442C79.9346 34.1124 79.7374 32.9866 79.3267 31.9373C78.916 30.888 78.3006 29.9377 77.5188 29.1459C76.7371 28.354 75.806 27.7377 74.7836 27.3354C73.7613 26.9331 72.6698 26.7536 71.5773 26.808ZM71.5773 41.0863C70.8397 41.1112 70.1053 40.9753 69.4217 40.6875C68.7381 40.3996 68.1206 39.9661 67.6093 39.4153C67.098 38.8644 66.7043 38.2084 66.4537 37.4898C66.2032 36.7712 66.1013 36.0061 66.1549 35.2442C66.1226 34.4884 66.2386 33.7337 66.4958 33.0256C66.753 32.3175 67.146 31.6706 67.6512 31.124C68.1565 30.5774 68.7634 30.1424 69.4355 29.8452C70.1075 29.548 70.8307 29.3948 71.5615 29.3948C72.2923 29.3948 73.0155 29.548 73.6876 29.8452C74.3596 30.1424 74.9666 30.5774 75.4718 31.124C75.977 31.6706 76.3701 32.3175 76.6273 33.0256C76.8844 33.7337 77.0004 34.4884 76.9682 35.2442C77.0245 36.005 76.9258 36.7697 76.6785 37.4885C76.4312 38.2074 76.0408 38.8645 75.5326 39.4173C75.0244 39.9701 74.4098 40.4062 73.7284 40.6975C73.0471 40.9888 72.3142 41.1286 71.5773 41.1081V41.0863Z" fill="#0C0C0C"/>
<path d="M97.5841 26.9824H94.0673L85.3282 35.2333V20.3555H82.3906V43.5496H85.3072V39.0154L88.7081 35.8218L94.7307 43.5496H98.3L90.9297 33.8272L97.5841 26.9824Z" fill="#0C0C0C"/>
<path d="M103.765 26.9824H100.859V43.5496H103.765V26.9824Z" fill="#0C0C0C"/>
<path d="M102.312 19.8868C102.056 19.8743 101.801 19.9189 101.564 20.0176C101.324 20.1119 101.105 20.2567 100.922 20.4427C100.742 20.6283 100.595 20.8462 100.49 21.0857C100.394 21.3278 100.344 21.5869 100.343 21.8487C100.322 22.2562 100.426 22.66 100.637 23.004C100.85 23.3446 101.154 23.6135 101.511 23.7779C101.868 23.9434 102.264 23.9928 102.649 23.9196C103.045 23.8547 103.413 23.6643 103.701 23.3746C103.99 23.078 104.184 22.698 104.259 22.2847C104.335 21.8864 104.299 21.474 104.154 21.0966C103.999 20.7573 103.755 20.4702 103.449 20.2683C103.118 20.0209 102.72 19.8874 102.312 19.8868Z" fill="#0C0C0C"/>
<path d="M114.841 26.808C113.767 26.7772 112.699 26.9752 111.702 27.3896C110.705 27.804 109.801 28.4259 109.046 29.2169C108.29 30.0078 107.7 30.9509 107.312 31.9877C106.923 33.0245 106.744 34.1329 106.786 35.2442C106.786 40.1489 110.24 43.7131 115.42 43.7131C116.599 43.7703 117.776 43.5588 118.868 43.0936C119.96 42.6284 120.939 41.9209 121.738 41.0209L120.127 39.0808C119.541 39.7427 118.823 40.265 118.024 40.6113C117.224 40.9576 116.36 41.1197 115.494 41.0863C112.335 41.0863 110.05 39.1462 109.682 36.2469H122.717C122.732 35.9419 122.732 35.6364 122.717 35.3314C122.77 30.2631 119.474 26.808 114.841 26.808ZM109.692 34.0888C109.833 32.777 110.436 31.565 111.386 30.6846C112.336 29.8043 113.566 29.3176 114.841 29.3176C116.116 29.3176 117.346 29.8043 118.296 30.6846C119.246 31.565 119.849 32.777 119.99 34.0888H109.692Z" fill="#0C0C0C"/>
<path d="M144.407 24.203C145.522 24.1707 146.632 24.3863 147.66 24.8352C148.689 25.2833 149.615 25.9519 150.377 26.7971L152.346 24.8243C151.315 23.6961 150.063 22.8091 148.673 22.2226C147.284 21.6361 145.79 21.3637 144.291 21.4236C137.837 21.4236 133.056 26.1431 133.056 32.6065C133.056 39.0699 137.837 43.8003 144.259 43.8003C145.766 43.8608 147.268 43.5855 148.663 42.9932C150.058 42.4009 151.314 41.5052 152.346 40.3669L150.377 38.3941C149.621 39.2445 148.699 39.9172 147.671 40.3669C146.553 40.8979 145.335 41.1614 144.106 41.1377C142.876 41.1141 141.668 40.804 140.571 40.2304C139.473 39.6569 138.515 38.8347 137.766 37.8249C137.018 36.8151 136.499 35.6437 136.248 34.3978C135.998 33.1519 136.021 31.8634 136.318 30.6283C136.614 29.3932 137.176 28.2431 137.961 27.2635C138.746 26.284 139.734 25.5001 140.851 24.9703C141.969 24.4404 143.188 24.1781 144.417 24.203H144.407Z" fill="#0C0C0C"/>
<path d="M162.19 26.808C161.097 26.7538 160.004 26.9333 158.981 27.3353C157.958 27.7374 157.025 28.3534 156.242 29.1448C155.458 29.9363 154.841 30.8864 154.428 31.9358C154.015 32.9851 153.815 34.1113 153.841 35.2442C153.841 37.5336 154.719 39.7293 156.283 41.3482C157.847 42.9671 159.968 43.8766 162.18 43.8766C164.391 43.8766 166.512 42.9671 168.076 41.3482C169.64 39.7293 170.519 37.5336 170.519 35.2442C170.548 34.1124 170.35 32.9866 169.94 31.9373C169.529 30.888 168.913 29.9377 168.132 29.1459C167.35 28.354 166.419 27.7377 165.397 27.3354C164.374 26.9331 163.283 26.7536 162.19 26.808ZM162.19 41.0863C161.454 41.1097 160.72 40.9726 160.038 40.6841C159.356 40.3955 158.739 39.9618 158.229 39.4111C157.719 38.8604 157.326 38.2049 157.076 37.4871C156.826 36.7693 156.725 36.0052 156.778 35.2442C156.778 33.7612 157.347 32.339 158.36 31.2904C159.373 30.2418 160.747 29.6527 162.18 29.6527C163.612 29.6527 164.986 30.2418 165.999 31.2904C167.012 32.339 167.581 33.7612 167.581 35.2442C167.637 36.005 167.539 36.7697 167.291 37.4885C167.044 38.2074 166.654 38.8645 166.146 39.4173C165.637 39.9701 165.023 40.4062 164.341 40.6975C163.66 40.9888 162.927 41.1286 162.19 41.1081V41.0863Z" fill="#0C0C0C"/>
<path d="M174.13 39.4514C173.856 39.4479 173.585 39.4997 173.33 39.604C173.083 39.7114 172.858 39.8668 172.667 40.0617C172.47 40.2588 172.316 40.4965 172.214 40.7593C172.117 41.0203 172.067 41.2973 172.066 41.5768C172.068 41.8598 172.117 42.1403 172.214 42.4051C172.317 42.665 172.467 42.9018 172.656 43.1027C172.849 43.3027 173.078 43.4619 173.33 43.5714C173.584 43.6793 173.856 43.7349 174.13 43.7349C174.399 43.7317 174.664 43.6724 174.909 43.5605C175.157 43.4498 175.383 43.2906 175.573 43.0918C175.755 42.8891 175.897 42.6523 175.994 42.3942C176.088 42.1333 176.131 41.8553 176.12 41.5768C176.131 41.3018 176.088 41.0274 175.994 40.7702C175.848 40.3817 175.591 40.048 175.259 39.8127C174.926 39.5774 174.533 39.4514 174.13 39.4514Z" fill="#0C0C0C"/>
</svg>
